<?xml version="1.0" encoding="UTF-8"?>
<!DOCTYPE svg  PUBLIC '-//W3C//DTD SVG 1.1//EN'  'http://www.w3.org/Graphics/SVG/1.1/DTD/svg11.dtd'>
<svg width="200" height="200"  clip-rule="evenodd" fill-rule="evenodd" stroke-linejoin="round" stroke-miterlimit="2" version="1.1" viewBox="0 0 1600 900" xml:space="preserve" xmlns="http://www.w3.org/2000/svg">
    <g transform="translate(-142.61 -9.7679)">
        <g transform="matrix(11.91 0 0 1.8758 -5697.5 -221.32)">
            <rect x="522.29" y="252.04" width="29.36" height="4.132" fill="#00ff0c"/>
        </g>
        
            <g transform="translate(19.58 53.338)">
                <g transform="matrix(1 0 0 1.1807 0 -16.183)">
                    <path d="m529.76 167.95c0 2.719 0.071 4.758 0.211 6.117 0.141 1.36 0.375 2.45 0.703 3.27 0.329 0.82 0.727 1.488 1.196 2.004 0.468 0.515 1.136 0.984 2.004 1.406 0.867 0.422 2.214 0.867 4.043 1.336v3.445h-29.461v-3.445c2.578-0.656 4.382-1.383 5.414-2.18 1.031-0.797 1.746-2.015 2.144-3.656 0.399-1.641 0.598-4.406 0.598-8.297v-29.461h-39.094v29.461c0 3.141 0.106 5.438 0.317 6.891s0.562 2.601 1.054 3.445 1.219 1.547 2.18 2.11c0.961 0.562 2.519 1.125 4.676 1.687v3.445h-29.602v-3.445c2.906-0.75 4.852-1.582 5.836-2.496s1.629-2.215 1.934-3.902c0.304-1.688 0.457-4.266 0.457-7.735v-60.82c0-3.234-0.117-5.59-0.352-7.067-0.234-1.476-0.621-2.625-1.16-3.445s-1.254-1.476-2.145-1.969c-0.89-0.492-2.414-1.043-4.57-1.652v-3.445h29.602v3.445c-2.063 0.516-3.551 1.031-4.465 1.547s-1.641 1.16-2.18 1.934c-0.539 0.773-0.937 1.933-1.195 3.48s-0.387 3.938-0.387 7.172v24.891h39.094v-24.891c0-4.078-0.199-6.867-0.598-8.367-0.398-1.5-1.066-2.649-2.004-3.446-0.937-0.796-2.789-1.57-5.554-2.32v-3.445h29.461v3.445c-2.625 0.656-4.454 1.395-5.485 2.215s-1.734 2.051-2.109 3.691c-0.375 1.641-0.563 4.383-0.563 8.227v60.82z" fill="#00ff0c" fill-rule="nonzero"/>
                </g>
                <g transform="matrix(1 0 0 1.1752 0 -15.688)">
                    <path d="m529.76 167.95c0 2.719 0.071 4.758 0.211 6.117 0.141 1.36 0.375 2.45 0.703 3.27 0.329 0.82 0.727 1.488 1.196 2.004 0.468 0.515 1.136 0.984 2.004 1.406 0.867 0.422 2.214 0.867 4.043 1.336v3.445h-29.461v-3.445c2.578-0.656 4.382-1.383 5.414-2.18 1.031-0.797 1.746-2.015 2.144-3.656 0.399-1.641 0.598-4.406 0.598-8.297v-29.461h-39.094v29.461c0 3.141 0.106 5.438 0.317 6.891s0.562 2.601 1.054 3.445 1.219 1.547 2.18 2.11c0.961 0.562 2.519 1.125 4.676 1.687v3.445h-29.602v-3.445c2.906-0.75 4.852-1.582 5.836-2.496s1.629-2.215 1.934-3.902c0.304-1.688 0.457-4.266 0.457-7.735v-60.82c0-3.234-0.117-5.59-0.352-7.067-0.234-1.476-0.621-2.625-1.16-3.445s-1.254-1.476-2.145-1.969c-0.89-0.492-2.414-1.043-4.57-1.652v-3.445h29.602v3.445c-2.063 0.516-3.551 1.031-4.465 1.547s-1.641 1.16-2.18 1.934c-0.539 0.773-0.937 1.933-1.195 3.48s-0.387 3.938-0.387 7.172v24.891h39.094v-24.891c0-4.078-0.199-6.867-0.598-8.367-0.398-1.5-1.066-2.649-2.004-3.446-0.937-0.796-2.789-1.57-5.554-2.32v-3.445h29.461v3.445c-2.625 0.656-4.454 1.395-5.485 2.215s-1.734 2.051-2.109 3.691c-0.375 1.641-0.563 4.383-0.563 8.227v60.82z" fill="#00ff0c" fill-rule="nonzero"/>
                </g>
                <g transform="matrix(1 0 0 1.1899 -3.4994 -18.009)">
                    <path d="m529.76 167.95c0 2.719 0.071 4.758 0.211 6.117 0.141 1.36 0.375 2.45 0.703 3.27 0.329 0.82 0.727 1.488 1.196 2.004 0.468 0.515 1.136 0.984 2.004 1.406 0.867 0.422 2.214 0.867 4.043 1.336v3.445h-29.461v-3.445c2.578-0.656 4.382-1.383 5.414-2.18 1.031-0.797 1.746-2.015 2.144-3.656 0.399-1.641 0.598-4.406 0.598-8.297v-29.461h-39.094v29.461c0 3.141 0.106 5.438 0.317 6.891s0.562 2.601 1.054 3.445 1.219 1.547 2.18 2.11c0.961 0.562 2.519 1.125 4.676 1.687v3.445h-29.602v-3.445c2.906-0.75 4.852-1.582 5.836-2.496s1.629-2.215 1.934-3.902c0.304-1.688 0.457-4.266 0.457-7.735v-60.82c0-3.234-0.117-5.59-0.352-7.067-0.234-1.476-0.621-2.625-1.16-3.445s-1.254-1.476-2.145-1.969c-0.89-0.492-2.414-1.043-4.57-1.652v-3.445h29.602v3.445c-2.063 0.516-3.551 1.031-4.465 1.547s-1.641 1.16-2.18 1.934c-0.539 0.773-0.937 1.933-1.195 3.48s-0.387 3.938-0.387 7.172v24.891h39.094v-24.891c0-4.078-0.199-6.867-0.598-8.367-0.398-1.5-1.066-2.649-2.004-3.446-0.937-0.796-2.789-1.57-5.554-2.32v-3.445h29.461v3.445c-2.625 0.656-4.454 1.395-5.485 2.215s-1.734 2.051-2.109 3.691c-0.375 1.641-0.563 4.383-0.563 8.227v60.82z" fill="#fff" fill-rule="nonzero" stroke="#000" stroke-width=".44px"/>
                </g>
                <g fill="url(#a)" fill-rule="nonzero">
                    <path d="m609.5 173.57c-3 3.141-5.754 5.602-8.262 7.383s-5.262 3.176-8.262 4.184c-3 1.007-6.304 1.511-9.914 1.511-9.656 0-16.945-2.894-21.867-8.683s-7.383-14.332-7.383-25.629c0-6.985 1.254-13.149 3.762-18.492 2.508-5.344 6.082-9.469 10.723-12.375 4.64-2.907 9.984-4.36 16.031-4.36 4.734 0 8.765 0.75 12.094 2.25 3.328 1.5 5.988 3.551 7.98 6.153 1.992 2.601 3.539 5.882 4.641 9.843 1.101 3.961 1.722 9.129 1.863 15.504h-44.297v1.266c0 5.531 0.621 10.183 1.863 13.957 1.243 3.773 3.282 6.726 6.118 8.859s6.527 3.2 11.074 3.2c3.844 0 7.301-0.715 10.371-2.145s6.129-3.762 9.176-6.996l4.289 4.57zm-11.813-28.547c-0.281-5.062-0.914-9.199-1.898-12.41-0.985-3.211-2.461-5.672-4.43-7.383s-4.547-2.566-7.734-2.566c-4.828 0-8.684 1.934-11.567 5.801-2.882 3.867-4.582 9.386-5.097 16.558h30.726z"/>
                    <path d="m664.2 175.47-1.055-0.282c-4.078 4.172-7.91 7.125-11.496 8.86-3.586 1.734-7.394 2.601-11.426 2.601-3.562 0-6.703-0.691-9.422-2.074-2.718-1.383-4.804-3.328-6.257-5.836-1.454-2.508-2.18-5.402-2.18-8.683 0-6.844 3.387-12.129 10.16-15.856 6.774-3.726 16.934-5.894 30.481-6.504v-4.57c0-4.875-0.469-8.719-1.407-11.531-0.937-2.813-2.414-4.875-4.429-6.188-2.016-1.312-4.711-1.969-8.086-1.969-3.657 0-6.598 0.961-8.825 2.883-2.226 1.922-3.902 4.805-5.027 8.649h-9.211v-9.141c4.5-2.344 8.25-4.066 11.25-5.168s6-1.969 9-2.602c3-0.632 6.047-0.949 9.141-0.949 4.64 0 8.367 0.739 11.179 2.215 2.813 1.477 4.922 3.738 6.329 6.785 1.406 3.047 2.109 7.641 2.109 13.782v24.468c0 3.469 0.023 5.918 0.07 7.348s0.188 2.754 0.422 3.973c0.235 1.218 0.586 2.191 1.055 2.918 0.469 0.726 1.16 1.347 2.074 1.863 0.914 0.515 2.402 1.055 4.465 1.617v3.445h-19.266l0.352-10.054zm-1.195-22.008c-9.516 0.094-16.641 1.359-21.375 3.797-4.735 2.437-7.102 6.117-7.102 11.039 0 2.672 0.539 4.781 1.617 6.328s2.438 2.613 4.078 3.199c1.641 0.586 3.586 0.879 5.836 0.879 3.188 0 6.082-0.773 8.684-2.32 2.601-1.547 4.629-3.516 6.082-5.907 1.453-2.39 2.18-4.757 2.18-7.101v-9.914z"/>
                    <path d="m712.65 167.95c0 4.031 0.188 6.832 0.563 8.403 0.375 1.57 1.09 2.765 2.144 3.585 1.055 0.821 2.778 1.536 5.168 2.145v3.445h-27.914v-3.445c2.344-0.609 3.973-1.242 4.887-1.898 0.914-0.657 1.57-1.442 1.969-2.356 0.398-0.914 0.679-2.156 0.843-3.726 0.164-1.571 0.246-3.622 0.246-6.153v-58.851c0-4.5-0.035-7.641-0.105-9.422s-0.258-3.293-0.563-4.535c-0.304-1.243-0.726-2.215-1.265-2.918s-1.266-1.266-2.18-1.688-2.566-0.844-4.957-1.265v-3.657l16.945-0.703h4.219v83.039z"/>
                    <path d="m728.75 121.82c2.343-0.375 4.242-1.031 5.695-1.969 1.453-0.937 2.59-2.144 3.41-3.621 0.821-1.476 1.465-3.328 1.934-5.554 0.469-2.227 0.961-5.473 1.476-9.739h9.985v17.368h22.711v7.101h-22.711v31.289c0 4.547 0.187 8.168 0.562 10.863 0.375 2.696 1.078 4.805 2.11 6.329 1.031 1.523 2.203 2.613 3.515 3.269 1.313 0.656 3 0.985 5.063 0.985 1.875 0 3.633-0.387 5.273-1.161 1.641-0.773 3.258-1.886 4.852-3.339l3.164 3.796c-3.328 3.235-6.481 5.579-9.457 7.032-2.977 1.453-6.059 2.179-9.246 2.179-6.047 0-10.547-1.793-13.5-5.379s-4.43-9.199-4.43-16.839v-39.024h-10.406v-3.586z"/>
                    <path d="m800.54 129.34 0.281 0.07c3.656-3.703 6.551-6.293 8.684-7.77 2.132-1.476 4.242-2.589 6.328-3.339s4.324-1.125 6.715-1.125c2.578 0 4.875 0.304 6.89 0.914 2.016 0.609 3.785 1.535 5.309 2.777 1.523 1.242 2.765 2.766 3.726 4.57 0.961 1.805 1.676 3.961 2.145 6.469s0.703 5.684 0.703 9.527v26.508c0 4.078 0.176 6.856 0.527 8.332 0.352 1.477 0.985 2.625 1.899 3.446 0.914 0.82 2.754 1.605 5.519 2.355v3.445h-27.703v-3.445c1.828-0.562 3.141-1.055 3.938-1.477 0.797-0.421 1.465-1.007 2.004-1.757s0.961-1.911 1.265-3.481c0.305-1.57 0.457-3.949 0.457-7.137v-18.421c0-6.235-0.316-11.004-0.949-14.309s-1.875-5.777-3.726-7.418c-1.852-1.641-4.442-2.461-7.77-2.461-1.875 0-3.563 0.328-5.063 0.984-1.5 0.657-3.234 1.829-5.203 3.516-1.968 1.688-3.457 3.422-4.464 5.203-1.008 1.781-1.512 3.68-1.512 5.696v26.929c0 3.188 0.082 5.461 0.246 6.821 0.164 1.359 0.48 2.496 0.949 3.41s1.184 1.664 2.145 2.25 2.449 1.136 4.464 1.652v3.445h-27.843v-3.445c2.062-0.562 3.539-1.102 4.429-1.617 0.891-0.516 1.582-1.172 2.075-1.969 0.492-0.797 0.855-1.945 1.089-3.445 0.235-1.5 0.352-3.867 0.352-7.102v-58.851c0-4.5-0.035-7.641-0.105-9.422-0.071-1.781-0.258-3.293-0.563-4.535-0.305-1.243-0.726-2.215-1.266-2.918-0.539-0.703-1.265-1.266-2.179-1.688s-2.567-0.844-4.957-1.265v-3.657l16.945-0.703h4.219v44.438z"/>
                    <path d="m881.26 90.743v13.641h-12.938v-13.641h12.938zm-20.11 91.336c1.828-0.562 3.129-1.055 3.903-1.477 0.773-0.421 1.429-1.007 1.968-1.757s0.961-1.899 1.266-3.446 0.457-3.961 0.457-7.242v-30.656c0-3-0.047-5.414-0.141-7.242-0.093-1.828-0.422-3.293-0.984-4.395-0.563-1.101-1.418-1.922-2.566-2.461-1.149-0.539-2.778-0.996-4.887-1.371v-3.726l16.383-0.633h4.289v50.273c0 4.031 0.187 6.832 0.562 8.403 0.375 1.57 1.09 2.765 2.145 3.585 1.054 0.821 2.777 1.536 5.168 2.145v3.445h-27.563v-3.445z"/>
                    <path d="m957.34 173.57c-3 3.141-5.754 5.602-8.262 7.383s-5.262 3.176-8.262 4.184c-3 1.007-6.304 1.511-9.914 1.511-9.656 0-16.945-2.894-21.867-8.683s-7.383-14.332-7.383-25.629c0-6.985 1.254-13.149 3.762-18.492 2.508-5.344 6.082-9.469 10.723-12.375 4.64-2.907 9.984-4.36 16.031-4.36 4.734 0 8.765 0.75 12.094 2.25 3.328 1.5 5.988 3.551 7.98 6.153 1.992 2.601 3.539 5.882 4.641 9.843 1.101 3.961 1.722 9.129 1.863 15.504h-44.297v1.266c0 5.531 0.621 10.183 1.863 13.957 1.243 3.773 3.282 6.726 6.118 8.859 2.835 2.133 6.527 3.2 11.074 3.2 3.843 0 7.301-0.715 10.371-2.145s6.129-3.762 9.176-6.996l4.289 4.57zm-11.813-28.547c-0.281-5.062-0.914-9.199-1.898-12.41-0.985-3.211-2.461-5.672-4.43-7.383s-4.547-2.566-7.734-2.566c-4.828 0-8.684 1.934-11.567 5.801s-4.582 9.386-5.097 16.558h30.726z"/>
                    <path d="m990.38 129.98 0.984 0.211c2.578-3.14 4.969-5.613 7.172-7.418 2.201-1.804 4.581-3.199 7.141-4.183 2.55-0.985 5.45-1.477 8.68-1.477 2.72 0 5.18 0.141 7.38 0.422v16.172h-7.94c-1.13-2.531-2.32-4.371-3.59-5.52-1.26-1.148-3-1.722-5.2-1.722-1.69 0-3.37 0.492-5.03 1.476-1.664 0.985-3.269 2.414-4.816 4.289s-2.613 3.633-3.199 5.274-0.879 3.586-0.879 5.836v24.609c0 4.266 0.257 7.207 0.773 8.824 0.516 1.618 1.371 2.801 2.567 3.551 1.195 0.75 2.988 1.336 5.378 1.758v3.445h-28.336v-3.445c1.782-0.562 3.059-1.055 3.833-1.477 0.773-0.421 1.441-1.007 2.003-1.757 0.563-0.75 0.985-1.899 1.266-3.446s0.422-3.961 0.422-7.242v-30.656c0-3-0.047-5.414-0.141-7.242-0.093-1.828-0.422-3.293-0.984-4.395-0.563-1.101-1.418-1.922-2.566-2.461-1.149-0.539-2.778-0.996-4.887-1.371v-3.656l16.453-0.703h4.289l-0.773 12.304z"/>
                </g>
                <g transform="matrix(11.91 0 0 1.8758 -5712.7 -274.19)">
                    <rect x="522.29" y="252.04" width="29.36" height="4.132" fill="none"/>
                </g>
            </g>
            <g transform="matrix(37.14 0 0 .94737 -19616 13.634)">
                <path d="m543 251.72v4.031" fill="#fff" stroke="#fff" stroke-linecap="round" stroke-miterlimit="1.5" stroke-width=".01px"/>
            </g>
            <g transform="matrix(37.153 0 0 .93144 -19623 17.678)">
                <path d="m543.01 255.96c2.724 0.333 5.746 8e-3 8.621 8e-3v-4.343l-8.623-0.077" fill="#fff" stroke="#060000" stroke-linecap="round" stroke-miterlimit="1.5" stroke-width=".01px"/>
            </g>
            <g transform="matrix(2.3668 0 0 2.3668 -1429.5 -315.87)">
                <rect x="1037.7" y="230.86" width="3.279" height="3.765" fill="#00ff63" fill-rule="nonzero"/>
            </g>
        
    </g>
    <defs>
        <linearGradient id="a" x2="1" gradientTransform="matrix(436.98 1.8754 -1.8754 436.98 555.33 151.05)" gradientUnits="userSpaceOnUse"><stop stop-color="#1aff00" offset="0"/><stop stop-color="#00ff64" offset="1"/></linearGradient>
    </defs>
</svg>
