<?xml version="1.0" encoding="UTF-8" standalone="no"?>
<!DOCTYPE svg PUBLIC "-//W3C//DTD SVG 1.1//EN" "http://www.w3.org/Graphics/SVG/1.1/DTD/svg11.dtd">
<svg width="100%" height="100%" viewBox="0 0 500 500" version="1.1" xmlns="http://www.w3.org/2000/svg" xmlns:xlink="http://www.w3.org/1999/xlink" xml:space="preserve" xmlns:serif="http://www.serif.com/" style="fill-rule:evenodd;clip-rule:evenodd;stroke-linejoin:round;stroke-miterlimit:2;">
    <g id="OBJECTS">
        <g>
            <g transform="matrix(1,0,0,1,280.289,383.247)">
                <path d="M0,13.491C0.514,14.386 1.031,15.298 1.275,16.3C1.521,17.303 1.462,18.426 0.886,19.281C-0.077,20.713 -2.083,20.944 -3.801,20.787C-6.455,20.543 -9.015,19.713 -11.548,18.888C-17.571,16.929 -23.673,14.93 -28.978,11.47C-29.582,11.076 -30.188,10.649 -30.587,10.05C-31.385,8.85 -31.178,7.266 -30.875,5.859C-29.94,1.53 -28.367,-2.66 -26.222,-6.534C-26.064,-6.82 -25.891,-7.115 -25.61,-7.28C-25.318,-7.452 -24.961,-7.453 -24.623,-7.436C-22.254,-7.312 -19.975,-6.5 -17.796,-5.561C-14.038,-3.939 -9.911,-2.218 -7.555,1.221C-4.839,5.186 -2.391,9.325 0,13.491" style="fill:rgb(113,188,154);fill-rule:nonzero;"/>
            </g>
            <g transform="matrix(1,0,0,1,165.932,342.411)">
                <path d="M0,27.936C-0.231,28.961 -0.471,30.001 -0.979,30.922C-1.485,31.844 -2.303,32.646 -3.325,32.891C-5.034,33.301 -6.699,32.093 -7.879,30.791C-9.702,28.78 -11.051,26.394 -12.384,24.029C-15.553,18.409 -18.755,12.706 -20.351,6.454C-20.533,5.742 -20.694,5.003 -20.58,4.278C-20.351,2.83 -19.105,1.783 -17.908,0.936C-14.224,-1.668 -10.156,-3.728 -5.877,-5.157C-5.562,-5.262 -5.228,-5.365 -4.904,-5.295C-4.567,-5.223 -4.298,-4.977 -4.057,-4.732C-2.364,-3.006 -1.213,-0.828 -0.226,1.379C1.476,5.186 3.387,9.32 2.785,13.525C2.091,18.371 1.077,23.164 0,27.936" style="fill:rgb(113,188,154);fill-rule:nonzero;"/>
            </g>
            <g transform="matrix(1,0,0,1,304.499,314.584)">
                <path d="M0,-3.328C0,-3.328 -16.634,42.253 -31.84,69.777C-31.867,69.821 -31.889,69.86 -31.911,69.901L-50.899,63.002L-51.184,62.897C-51.184,62.897 -35.719,14.369 -29.324,-2.194C-29.324,-2.194 -38.385,-15.059 -47.883,-30.476C-49.223,-32.651 -50.571,-34.88 -51.906,-37.125C-59.287,-49.579 -66.189,-62.697 -68.488,-71.557L-53.771,-72.113C-53.767,-72.109 -53.767,-72.109 -53.762,-72.113L-24.049,-73.229L-10.869,-34.919L0,-3.328Z" style="fill:rgb(37,37,81);fill-rule:nonzero;"/>
            </g>
            <g transform="matrix(1,0,0,1,262.284,348.158)">
                <path d="M0,-102.211L-9.691,-70.698L-11.771,-63.944L-22.114,-30.305C-22.114,-30.305 -71.906,2.823 -93.163,8.177L-93.543,7.611L-105.218,-9.718C-105.218,-9.718 -105.135,-9.775 -104.977,-9.885C-104.973,-9.885 -104.973,-9.885 -104.973,-9.889C-101.676,-12.152 -66.076,-36.524 -47.77,-46.619C-47.77,-46.619 -47.914,-56.048 -47.967,-67.757C-48.037,-83.844 -47.936,-104.233 -47.061,-110.388C-47.061,-110.388 -26.194,-108.716 -11.556,-105.687C-11.552,-105.683 -11.552,-105.683 -11.547,-105.687C-6.671,-104.671 -2.491,-103.511 0,-102.211" style="fill:rgb(37,37,81);fill-rule:nonzero;"/>
            </g>
            <g transform="matrix(1,0,0,1,293.63,242.352)">
                <path d="M0,37.313C-10.82,39.396 -24.561,40.986 -27.012,41.187C-30.247,41.454 -33.596,41.646 -37.014,41.755C-38.354,39.581 -39.702,37.352 -41.037,35.107L-43.116,41.861C-55.132,41.896 -67.721,40.833 -79.313,38.048C-79.382,21.961 -79.282,1.572 -78.406,-4.583C-78.406,-4.583 -57.54,-2.911 -42.902,0.119C-42.897,0.123 -42.897,0.123 -42.893,0.119L-13.18,-0.998L0,37.313Z" style="fill:rgb(28,26,63);fill-rule:nonzero;"/>
            </g>
            <g transform="matrix(1,0,0,1,297.425,254.522)">
                <path d="M0,-99.436L-12.572,-52.34L-3.598,11.608C-8.426,13.731 -13.474,15.346 -18.608,16.55C-54.458,24.972 -94.646,13.302 -94.646,13.302C-87.862,-17.838 -58.752,-64.837 -58.752,-64.837C-60.065,-88.142 -50.436,-99.283 -50.436,-99.283C-44.307,-108.606 -24.171,-124.408 -24.171,-124.408L-4.255,-123.52L0.998,-103.183L0,-99.436Z" style="fill:white;fill-rule:nonzero;"/>
            </g>
            <g transform="matrix(1,0,0,1,264.182,131.535)">
                <path d="M0,-39.608C-5.401,-34.137 -7.47,-26.046 -7.17,-18.364C-6.87,-10.682 -4.457,-3.257 -1.969,4.017C-1.75,4.659 -1.482,5.358 -0.886,5.681C-0.289,6.003 0.674,5.587 0.562,4.918C0.056,5.753 1.243,6.781 2.183,6.519C3.124,6.257 3.683,5.315 4.116,4.44C8.184,-3.779 9.623,-13.117 13.813,-21.275C15.508,-24.575 17.635,-27.642 19.261,-30.976C21.554,-35.675 23.87,-42.91 17.216,-44.737C11.198,-46.389 4.292,-43.956 0,-39.608" style="fill:rgb(28,26,63);fill-rule:nonzero;"/>
            </g>
            <g transform="matrix(1,0,0,1,314.4,137.358)">
                <path d="M0,-24.316C0,-24.316 -2.534,-12.733 -8.487,-2.871C-13.876,6.054 -22.062,13.57 -33.705,9.827C-33.705,9.827 -46.417,7.901 -48.352,-6.435C-48.479,-7.38 -48.562,-8.378 -48.588,-9.433C-48.588,-9.433 -47.713,-25.629 -36.77,-37.886L0,-24.316Z" style="fill:rgb(248,173,168);fill-rule:nonzero;"/>
            </g>
            <g transform="matrix(1,0,0,1,262.798,120.025)">
                <path d="M0,7.276C-1.629,4.92 -2.219,1.797 -1.571,-1.038C-1.419,-1.7 -1.199,-2.355 -0.817,-2.904C0.467,-4.749 3.281,-4.753 5.021,-3.384C6.762,-2.014 7.59,0.306 7.937,2.566C8.269,4.731 8.907,10.307 6.475,11.241C4.423,12.029 1.035,8.773 0,7.276" style="fill:rgb(248,173,168);fill-rule:nonzero;"/>
            </g>
            <g transform="matrix(1,0,0,1,327.097,99.5017)">
                <path d="M0,0.733C-0.649,-0.312 -1.958,-1.01 -3.138,-0.661C-2.508,-1.203 -2.272,-2.07 -2.171,-2.895C-1.678,-6.92 -3.871,-11.142 -7.448,-13.054C-10.602,-14.74 -14.396,-14.642 -17.939,-14.155C-21.483,-13.667 -25.036,-12.831 -28.595,-13.188C-30.905,-13.42 -33.132,-14.148 -35.398,-14.651C-39.722,-15.61 -44.445,-15.699 -48.375,-13.657C-52.304,-11.615 -55.114,-7.015 -54.029,-2.721C-53.814,-1.872 -54.272,-1.258 -53.666,-0.828C-53.677,-0.887 -53.662,-0.948 -53.598,-0.967C-53.537,-0.985 -53.48,-0.968 -53.426,-0.939C-53.486,-0.89 -53.541,-0.836 -53.599,-0.785C-53.622,-0.799 -53.646,-0.813 -53.666,-0.828C-53.661,-0.8 -53.649,-0.774 -53.635,-0.751C-53.936,-0.48 -54.221,-0.192 -54.478,0.119C-55.435,1.279 -56.074,2.667 -56.631,4.064C-57.493,6.228 -58.185,8.46 -58.697,10.733C-58.035,7.795 -55.293,5.902 -52.553,5.1C-48.938,4.042 -46.594,5.185 -43.525,7.078C-41.497,8.33 -39.346,9.416 -37.18,10.407C-32.91,12.361 -28.433,13.861 -23.846,14.865C-18.941,15.939 -13.736,16.432 -8.966,14.868C-4.195,13.305 0.031,9.29 0.604,4.302C0.744,3.081 0.649,1.778 0,0.733" style="fill:rgb(28,26,63);fill-rule:nonzero;"/>
            </g>
            <g transform="matrix(1,0,0,1,310.149,120.237)">
                <path d="M0,0.574C-0.467,-0.214 -1.228,-0.532 -2.067,-0.8C-2.9,-1.066 -3.732,-1.338 -4.559,-1.62C-6.086,-2.142 -6.925,0.108 -5.627,0.914C-4.358,1.703 -2.685,2.49 -1.176,2.623C-0.125,2.716 0.492,1.405 0,0.574" style="fill:rgb(28,26,63);fill-rule:nonzero;"/>
            </g>
            <g transform="matrix(1,0,0,1,291.116,113.137)">
                <path d="M0,0.337C-0.893,-0.402 -1.989,-0.819 -3.015,-1.345C-3.964,-1.833 -4.98,-2.644 -6.093,-2.332C-6.49,-2.221 -6.925,-1.767 -6.866,-1.316C-6.7,-0.053 -5.684,0.512 -4.677,1.159C-3.701,1.787 -2.571,2.559 -1.411,2.761C-0.145,2.981 1.233,1.358 0,0.337" style="fill:rgb(28,26,63);fill-rule:nonzero;"/>
            </g>
            <g transform="matrix(1,0,0,1,305.614,129.473)">
                <path d="M0,-4.501C-0.973,-5.316 -1.937,-4.913 -2.611,-4.066C-3.109,-3.617 -3.452,-2.965 -3.575,-2.334C-3.783,-1.265 -3.51,0.192 -2.284,0.505C-1.071,0.815 -0.155,-0.418 0.287,-1.376C0.767,-2.416 0.989,-3.673 0,-4.501" style="fill:rgb(28,26,63);fill-rule:nonzero;"/>
            </g>
            <g transform="matrix(1,0,0,1,286.792,121.593)">
                <path d="M0,-4.501C-0.974,-5.316 -1.937,-4.912 -2.611,-4.065C-3.109,-3.617 -3.453,-2.965 -3.575,-2.334C-3.783,-1.265 -3.51,0.193 -2.285,0.506C-1.072,0.815 -0.155,-0.418 0.287,-1.376C0.766,-2.415 0.989,-3.673 0,-4.501" style="fill:rgb(28,26,63);fill-rule:nonzero;"/>
            </g>
            <g transform="matrix(0.089024,-0.996029,-0.996029,-0.089024,287.413,114.947)">
                <path d="M-17.815,-20.166C-27.185,-15.593 -35.4,-8.109 -32.708,3.822C-32.708,3.822 -31.921,16.655 -17.815,19.857L-5.187,15.51L-17.815,-20.166Z" style="fill:rgb(141,201,176);fill-rule:nonzero;"/>
            </g>
            <g transform="matrix(1,0,0,1,305.37,118.328)">
                <path d="M0,14.649C-1.881,14.451 -3.835,13.513 -5.615,12.877C-7.329,12.263 -9.03,11.614 -10.718,10.932C-14.247,9.503 -17.708,7.907 -21.112,6.203C-24.369,4.573 -27.563,2.812 -30.682,0.93C-32.241,-0.011 -33.764,-1.006 -35.299,-1.984C-36.289,-2.615 -37.118,-3.457 -38.31,-3.108C-38.341,-3.099 -38.369,-3.068 -38.367,-3.034C-38.299,-1.758 -37.133,-1.204 -36.158,-0.515C-34.67,0.537 -33.149,1.545 -31.615,2.527C-28.438,4.563 -25.173,6.455 -21.832,8.207C-18.637,9.882 -15.36,11.396 -12.034,12.791C-10.354,13.495 -8.66,14.168 -6.953,14.805C-4.918,15.565 -2.567,16.053 -0.665,17.103C1.155,18.106 2.237,14.884 0,14.649" style="fill:rgb(163,216,191);fill-rule:nonzero;"/>
            </g>
            <g transform="matrix(1,0,0,1,297.667,126.836)">
                <path d="M0,10.581C-4.699,9.803 -9.246,8.592 -13.538,6.482C-15.535,5.5 -17.459,4.365 -19.289,3.098C-21.204,1.77 -22.868,0.096 -24.813,-1.176C-25.235,-1.452 -25.82,-0.893 -25.522,-0.467C-22.896,3.285 -18.056,6.043 -14.015,7.993C-9.678,10.085 -4.99,11.52 -0.187,11.961C0.594,12.033 0.783,10.71 0,10.581" style="fill:rgb(113,188,154);fill-rule:nonzero;"/>
            </g>
            <g transform="matrix(1,0,0,1,292.025,132.964)">
                <path d="M0,10.581C-4.249,9.803 -8.359,8.593 -12.24,6.483C-14.045,5.501 -15.786,4.366 -17.439,3.098C-19.17,1.77 -20.675,0.096 -22.434,-1.176C-22.815,-1.452 -23.344,-0.893 -23.075,-0.467C-20.701,3.285 -16.324,6.043 -12.671,7.993C-8.75,10.085 -4.512,11.52 -0.169,11.962C0.537,12.033 0.708,10.711 0,10.581" style="fill:rgb(113,188,154);fill-rule:nonzero;"/>
            </g>
            <g transform="matrix(1,0,0,1,311.314,112.084)">
                <path d="M0,19.144C-2.928,22.075 -7.69,21.823 -10.562,18.953C-13.224,16.293 -13.658,11.595 -11.606,8.457C-9.301,4.928 -3.188,4.159 -0.158,7.171C2.84,10.152 3.025,16.117 0,19.144M-20.358,11.351C-23.286,14.282 -28.049,14.03 -30.92,11.16C-33.582,8.5 -34.016,3.802 -31.965,0.664C-29.659,-2.865 -23.547,-3.634 -20.516,-0.622C-17.518,2.359 -17.333,8.323 -20.358,11.351M0.772,6.242C-1.142,4.352 -3.669,3.763 -6.284,4.189C-8.334,4.523 -10.754,5.256 -12.042,6.979C-12.112,7.04 -12.177,7.104 -12.244,7.168C-13.04,6.653 -13.949,6.25 -14.841,5.963C-15.423,5.777 -16.155,5.55 -16.84,5.517C-16.854,2.877 -17.784,0.229 -19.586,-1.551C-21.5,-3.442 -24.027,-4.03 -26.642,-3.604C-28.692,-3.27 -31.112,-2.537 -32.4,-0.814C-32.688,-0.563 -32.945,-0.289 -33.177,0.002C-34.803,-1.257 -36.614,-2.138 -38.557,-2.841C-40.522,-3.553 -42.76,-4.541 -44.872,-4.135C-45.355,-4.042 -45.354,-3.253 -44.872,-3.159C-41.107,-2.421 -37.245,-0.67 -34.088,1.522C-35.542,4.863 -34.539,9.42 -32.13,11.952C-28.733,15.522 -22.928,15.892 -19.385,12.324C-17.985,10.914 -17.181,8.989 -16.929,6.964C-16.469,7.135 -15.983,7.264 -15.542,7.446C-14.772,7.762 -14.054,8.143 -13.327,8.53C-15.337,11.904 -14.376,17.008 -11.772,19.745C-8.375,23.315 -2.57,23.685 0.973,20.117C4.505,16.559 4.305,9.732 0.772,6.242" style="fill:white;fill-rule:nonzero;"/>
            </g>
            <g transform="matrix(1,0,0,1,257.734,214.131)">
                <path d="M0,-23.031C1.396,-23.738 2.836,-23.595 4.57,-23.549C6.825,-23.489 9.079,-23.428 11.333,-23.368C16.686,-23.225 22.038,-23.081 27.39,-22.938C30.841,-22.846 34.292,-22.754 37.744,-22.661C37.744,-22.661 38.069,-14.837 36.84,-7.171C36.695,-6.263 28.821,-4.814 27.978,-4.587C24.922,-3.762 21.866,-3.014 18.812,-2.366C16.021,-1.774 13.195,-1.087 10.417,-0.85C7.727,-0.623 5,0.707 2.311,0.529C-1.569,0.27 -6.402,-3.443 -5.428,-12.784C-5.18,-15.163 -4.399,-17.386 -3.443,-19.126C-2.236,-21.324 -1.132,-22.457 0,-23.031" style="fill:white;fill-rule:nonzero;"/>
            </g>
            <g transform="matrix(1,0,0,1,338.952,181.482)">
                <path d="M0,23.524C-0.853,25.988 -2.534,28.256 -4.911,29.323C-5.576,29.621 -7.511,29.854 -10.111,30.016C-16.813,30.427 -27.91,30.361 -32.852,29.665C-33.683,29.547 -34.524,29.407 -35.364,29.494C-35.53,29.512 -36.196,29.552 -37.146,29.6C-39.615,29.731 -43.97,29.928 -46.22,30.016L-46.268,30.016C-46.898,22.434 -46.802,16.108 -45.979,8.545C-43.309,8.335 -40.634,8.125 -37.964,7.915C-37.859,7.906 -37.754,7.897 -37.649,7.888C-37.211,7.853 -33.745,-3.655 -18.761,-6.382C-15.903,-6.903 -12.843,-6.067 -10.396,-4.5C-7.944,-2.937 -6.163,-0.171 -6.255,2.736C-3.742,3.48 -1.672,5.726 -0.604,8.12C0.469,10.515 0.766,13.18 0.858,15.802C0.95,18.407 0.85,21.064 0,23.524" style="fill:rgb(113,188,154);fill-rule:nonzero;"/>
            </g>
            <g transform="matrix(1,0,0,1,331.653,210.307)">
                <path d="M0,-26.714C-2.578,-23.458 -7.122,-23.499 -10.536,-21.408C-13.498,-19.595 -15.861,-16.893 -16.933,-13.561C-18.797,-7.764 -15.534,0.302 -8.607,0.369C-7.501,0.38 -7.243,-1.313 -8.343,-1.579C-11.443,-2.331 -14.027,-3.977 -15.105,-7.151C-16.267,-10.568 -15.16,-14.471 -12.879,-17.168C-10.607,-19.853 -7.606,-21.178 -4.338,-22.22C-2.198,-22.901 0.252,-23.831 0.743,-26.281C0.82,-26.669 0.301,-27.094 0,-26.714" style="fill:rgb(102,178,142);fill-rule:nonzero;"/>
            </g>
            <g transform="matrix(1,0,0,1,124.176,-43.956)">
                <g opacity="0.68">
                    <g transform="matrix(1,0,0,1,204.665,241.563)">
                        <path d="M0,13.89C-6.702,14.301 -17.798,14.236 -22.74,13.539C-23.572,13.421 -24.413,13.282 -25.253,13.369C-25.419,13.386 -26.084,13.426 -27.034,13.474C-29.503,13.605 -33.858,13.802 -36.108,13.89C-36.1,12.09 -36.078,10.296 -36.043,8.497C-35.99,5.875 -36.529,1.961 -35.548,-0.411C-30.75,1.979 -26.601,4.172 -21.033,4.172C-18.218,4.172 -14.9,3.292 -13.968,0.635C-14.686,5.227 -11.359,9.679 -7.214,11.785C-4.959,12.931 -2.513,13.536 0,13.89" style="fill:rgb(102,178,142);fill-rule:nonzero;"/>
                    </g>
                </g>
            </g>
            <g transform="matrix(1,0,0,1,301.807,189.812)">
                <path d="M0,21.269C-2.486,21.4 -6.886,21.602 -9.123,21.685C-9.753,14.103 -9.657,7.778 -8.833,0.214C-6.164,0.004 -3.489,-0.206 -0.819,-0.416C-0.871,-0.149 -0.915,0.087 -0.933,0.262C-1.383,5.147 -1.366,10.072 -0.88,14.953C-0.836,15.412 -0.35,19.093 0,21.269" style="fill:rgb(35,35,76);fill-rule:nonzero;"/>
            </g>
            <g transform="matrix(1,0,0,1,124.176,-43.956)">
                <g opacity="0.12">
                    <g transform="matrix(1,0,0,1,198.771,232.581)">
                        <path d="M0,-11.64C-4.957,-12.68 -10.81,-9.505 -14.271,-6.135C-17.305,-3.181 -12.85,1.04 -9.7,-1.565C-8.191,-2.812 -6.617,-3.93 -4.829,-4.755C-3.052,-5.576 -1.111,-5.9 0.63,-6.817C2.581,-7.845 2.209,-11.177 0,-11.64" style="fill:white;fill-rule:nonzero;"/>
                    </g>
                </g>
            </g>
            <g transform="matrix(1,0,0,1,284.853,223.739)">
                <path d="M0,-21.557L8.974,42.391C4.146,44.514 -0.902,46.129 -6.036,47.333C-8.115,28.511 -9.735,9.64 -10.899,-9.257C-11.201,-14.177 -11.473,-19.132 -10.834,-24.017C-10.129,-29.397 -8.338,-34.567 -6.5,-39.675C-3.515,-47.983 -0.998,-57.075 2.959,-64.967C4.215,-67.475 5.402,-68.408 8.216,-68.832C8.602,-68.89 10.431,-68.819 12.572,-68.653L0,-21.557Z" style="fill:rgb(242,242,242);fill-rule:nonzero;"/>
            </g>
            <g transform="matrix(1,0,0,1,272.539,175.011)">
                <path d="M0,-29.698C3.349,-30.412 6.914,-30.054 11.189,-29.781C16.748,-29.425 22.306,-29.07 27.865,-28.714C41.061,-27.87 54.257,-27.026 67.454,-26.182C75.963,-25.637 84.472,-25.094 92.981,-24.549C92.981,-24.549 94.752,-14.689 92.679,-5.22C92.434,-4.101 73.228,-3.259 71.177,-3.078C63.755,-2.423 56.325,-1.863 48.886,-1.429C42.087,-1.031 35.214,-0.52 28.401,-0.569C21.807,-0.616 15.257,0.714 8.614,0.156C-0.971,-0.65 -13.333,-5.909 -12.093,-17.512C-11.777,-20.467 -10.131,-23.159 -7.994,-25.224C-5.293,-27.833 -2.717,-29.118 0,-29.698" style="fill:white;fill-rule:nonzero;"/>
            </g>
            <g transform="matrix(1,0,0,1,350.82,172.216)">
                <path d="M0,-23.101C-0.387,-23.102 -0.81,-23.089 -1.107,-22.799C-1.416,-22.499 -1.497,-21.993 -1.556,-21.529C-2.451,-14.514 -2.847,-7.413 -2.737,-0.322C0.964,1.193 4.975,1.664 8.86,1.04C9.871,-5.107 11.172,-13.119 10.066,-19.344C9.103,-24.765 3.77,-23.094 0,-23.101" style="fill:rgb(35,35,76);fill-rule:nonzero;"/>
            </g>
            <g transform="matrix(1,0,0,1,410.776,168.517)">
                <path d="M0,8.264C-0.04,11.149 -0.092,14.086 -1.038,16.808C-2.395,20.722 -5.512,23.843 -9.092,25.918C-15.085,29.389 -22.692,30.138 -29.083,27.467C-34.537,25.182 -38.915,20.341 -40.508,14.681C-40.784,13.714 -40.977,12.724 -41.077,11.722C-45.17,12.046 -48.939,9.686 -52.362,7.428C-53.338,6.78 -54.358,6.089 -54.879,5.038C-55.395,3.992 -55.334,2.766 -55.26,1.602C-55.15,-0.075 -55.045,-1.756 -54.936,-3.432C-54.59,-8.82 -54.244,-14.205 -53.898,-19.598C-40.478,-20.276 -26.855,-21.874 -13.456,-20.048C-11.246,-19.746 -8.979,-19.344 -7.113,-18.127C-5.323,-16.958 -4.062,-15.133 -3.112,-13.22C0.145,-6.676 0.104,0.958 0,8.264" style="fill:rgb(113,188,154);fill-rule:nonzero;"/>
            </g>
            <g transform="matrix(1,0,0,1,124.176,-43.956)">
                <g opacity="0.68">
                    <g transform="matrix(1,0,0,1,245.979,211.43)">
                        <path d="M0,13.334C0.026,14.13 0.065,14.927 0.113,15.724C-0.162,14.756 -0.355,13.767 -0.456,12.765C-4.548,13.089 -8.317,10.729 -11.74,8.471C-12.716,7.823 -13.736,7.131 -14.257,6.081C-14.774,5.034 -14.712,3.809 -14.638,2.645C-14.528,0.968 -14.424,-0.713 -14.314,-2.39C-12.708,-1.006 -11.224,0.285 -9.065,1.134C-5.332,2.609 -1.182,2.828 2.784,2.215C0.118,5.096 -0.132,9.412 0,13.334" style="fill:rgb(102,178,142);fill-rule:nonzero;"/>
                    </g>
                </g>
            </g>
        </g>
    </g>
</svg>
